<svg xmlns:xlink="http://www.w3.org/1999/xlink" xmlns="http://www.w3.org/2000/svg" viewBox="0 0 956.95 149.75">
    <defs>
        <style>
            .cls-1{fill:url(#╨С╨╡╨╖╤Л╨╝╤П╨╜╨╜╤Л╨╣_╨│╤А╨░╨┤╨╕╨╡╨╜╤В_12);}.cls-2{fill:url(#╨С╨╡╨╖╤Л╨╝╤П╨╜╨╜╤Л╨╣_╨│╤А╨░╨┤╨╕╨╡╨╜╤В_31);}.cls-3{fill:url(#╨С╨╡╨╖╤Л╨╝╤П╨╜╨╜╤Л╨╣_╨│╤А╨░╨┤╨╕╨╡╨╜╤В_31-2);}.cls-4{fill:url(#╨С╨╡╨╖╤Л╨╝╤П╨╜╨╜╤Л╨╣_╨│╤А╨░╨┤╨╕╨╡╨╜╤В_31-3);}.cls-5{fill:url(#╨С╨╡╨╖╤Л╨╝╤П╨╜╨╜╤Л╨╣_╨│╤А╨░╨┤╨╕╨╡╨╜╤В_31-4);}.cls-6{fill:#fff;}
        </style>
        <linearGradient id="╨С╨╡╨╖╤Л╨╝╤П╨╜╨╜╤Л╨╣_╨│╤А╨░╨┤╨╕╨╡╨╜╤В_12" x1="0.27" y1="74.88" x2="319.65" y2="74.88"
                        gradientUnits="userSpaceOnUse">
            <stop offset="0" stop-color="#bd63b1"/>
            <stop offset="0.33" stop-color="#6546ac"/>
            <stop offset="0.66" stop-color="#2b4894"/>
            <stop offset="1" stop-color="#23669b"/>
        </linearGradient>
        <linearGradient id="╨С╨╡╨╖╤Л╨╝╤П╨╜╨╜╤Л╨╣_╨│╤А╨░╨┤╨╕╨╡╨╜╤В_31" x1="30.83" y1="30.42" x2="50.43" y2="2.45"
                        gradientUnits="userSpaceOnUse">
            <stop offset="0" stop-color="#fff" stop-opacity="0.2"/>
            <stop offset="1" stop-color="#fff" stop-opacity="0"/>
        </linearGradient>
        <linearGradient id="╨С╨╡╨╖╤Л╨╝╤П╨╜╨╜╤Л╨╣_╨│╤А╨░╨┤╨╕╨╡╨╜╤В_31-2" x1="64.67" y1="48.38" x2="150.05" y2="48.38"
                        xlink:href="#╨С╨╡╨╖╤Л╨╝╤П╨╜╨╜╤Л╨╣_╨│╤А╨░╨┤╨╕╨╡╨╜╤В_31"/>
        <linearGradient id="╨С╨╡╨╖╤Л╨╝╤П╨╜╨╜╤Л╨╣_╨│╤А╨░╨┤╨╕╨╡╨╜╤В_31-3" x1="292.14" y1="43.81" x2="249.42" y2="-5.96"
                        xlink:href="#╨С╨╡╨╖╤Л╨╝╤П╨╜╨╜╤Л╨╣_╨│╤А╨░╨┤╨╕╨╡╨╜╤В_31"/>
        <linearGradient id="╨С╨╡╨╖╤Л╨╝╤П╨╜╨╜╤Л╨╣_╨│╤А╨░╨┤╨╕╨╡╨╜╤В_31-4" x1="171.08" y1="74.88" x2="249.48" y2="74.88"
                        xlink:href="#╨С╨╡╨╖╤Л╨╝╤П╨╜╨╜╤Л╨╣_╨│╤А╨░╨┤╨╕╨╡╨╜╤В_31"/>
    </defs>
    <g id="╨б╨╗╨╛╨╣_2" data-name="╨б╨╗╨╛╨╣ 2">
        <g id="╨б╨╗╨╛╨╣_1-2" data-name="╨б╨╗╨╛╨╣ 1">
            <rect class="cls-1" width="149.75" height="149.75"/>
            <rect class="cls-1" x="171.08" width="149.75" height="149.75"/>
            <polygon class="cls-2" points="104.3 0 64.95 45.05 0 5.44 0 0 104.3 0"/>
            <polygon class="cls-3" points="149.75 0 149.75 96.76 64.95 45.05 104.3 0 149.75 0"/>
            <polygon class="cls-4" points="320.84 0 249.48 71.35 198.43 0 320.84 0"/>
            <polygon class="cls-5" points="249.48 71.35 171.08 149.75 171.08 0 198.43 0 249.48 71.35"/>
            <path class="cls-6"
                  d="M56.45,124.45H38V25.67H79.91q17.93,0,26.58,9.82a33.9,33.9,0,0,1,8.66,23.19q0,15.24-9.37,24.69T82,92.82H56.45Zm0-48.82H78.27q8.53,0,13-4.57t4.5-12.14a17.52,17.52,0,0,0-4.16-11.73q-4.17-4.89-15-4.89H56.45Z"/>
            <path class="cls-6"
                  d="M286,124.45H266.5L250.61,91.19H224.67v33.26H206.23V25.67h44.38q18.51,0,27.21,9.09t8.7,23.51q0,21.43-18.44,29.5ZM224.67,75.14h22.94q10,0,14.85-4.57T267.33,58a15.53,15.53,0,0,0-4.8-11.85q-4.8-4.53-13.42-4.52H224.67Z"/>
            <path d="M364,64.64v-48h2.95l22.3,38.49h-1.58l22.23-38.49h2.88l.07,48h-3.43l-.07-42.74h1L389.22,58.26H387.5L366.37,21.9h1V64.64Z"/>
            <path d="M433.06,61.49H462.7v3.15H429.56v-48h32.11v3.15H433.06Zm-.41-22.78h26V41.8h-26Z"/>
            <path d="M475.46,64.64v-48h19a27.88,27.88,0,0,1,13.38,3.09,22.45,22.45,0,0,1,9,8.5A24.12,24.12,0,0,1,520,40.63a24.07,24.07,0,0,1-3.19,12.42,22.55,22.55,0,0,1-9,8.51,28,28,0,0,1-13.38,3.08Zm3.5-3.15h15.23A24.62,24.62,0,0,0,506,58.81a19.26,19.26,0,0,0,7.75-7.37,21.06,21.06,0,0,0,2.75-10.81,21.06,21.06,0,0,0-2.75-10.81A19.26,19.26,0,0,0,506,22.45a24.73,24.73,0,0,0-11.8-2.68H479Z"/>
            <path d="M532.13,64.64v-48h3.5v48Z"/>
            <path d="M544.34,64.64l22.09-48h3.5l22.09,48h-3.77L567.39,18.81h1.51L548.11,64.64Zm8.1-13.51,1.16-3h28.75l1.17,3Z"/>
            <path d="M367.47,132.49h29.64v3.15H364v-48h32.11v3.15H367.47Zm-.41-22.78h26v3.09h-26Z"/>
            <path d="M409.87,135.64v-48h2.95l34.24,43.7h-1.58V87.62H449v48h-2.89l-34.3-43.7h1.58v43.7Z"/>
            <path d="M474.91,135.64V90.77H457.62V87.62H495.7v3.15H478.41v44.87Z"/>
            <path d="M507.84,132.49h29.64v3.15H504.34v-48h32.11v3.15H507.84Zm-.41-22.78h26v3.09h-26Z"/>
            <path d="M550.24,135.64v-48h17.22a25.38,25.38,0,0,1,10.36,1.92,14.94,14.94,0,0,1,6.66,5.52,15.8,15.8,0,0,1,2.33,8.75,15.53,15.53,0,0,1-2.33,8.61,15.22,15.22,0,0,1-6.66,5.56,25,25,0,0,1-10.36,2h-15.3l1.58-1.64v17.35Zm3.5-17.15-1.58-1.64h15.3q7.75,0,11.77-3.44t4-9.6q0-6.24-4-9.64t-11.77-3.4h-15.3l1.58-1.71Zm29.84,17.15L571.1,118.22h4l12.48,17.42Z"/>
            <path d="M608.15,135.64V90.77H590.86V87.62h38.08v3.15H611.65v44.87Z"/>
            <path d="M627.15,135.64l22.09-48h3.5l22.09,48h-3.77L650.2,89.81h1.51l-20.79,45.83Zm8.1-13.51,1.16-2.95h28.75l1.17,2.95Z"/>
            <path d="M683.55,135.64v-48h3.5v48Z"/>
            <path d="M703.79,135.64v-48h3L741,131.32h-1.58V87.62h3.5v48H740l-34.3-43.7h1.58v43.7Z"/>
            <path d="M759.63,135.64v-48h3l22.3,38.49H783.3l22.23-38.49h2.89l.06,48h-3.43L805,92.9h1l-21.07,36.36h-1.71L762,92.9h1v42.74Z"/>
            <path d="M828.72,132.49h29.64v3.15H825.22v-48h32.11v3.15H828.72Zm-.41-22.78h26v3.09h-26Z"/>
            <path d="M871.12,135.64v-48h3l34.24,43.7h-1.58V87.62h3.5v48h-2.88L873,91.94h1.58v43.7Z"/>
            <path d="M936.16,135.64V90.77H918.87V87.62H957v3.15H939.66v44.87Z"/>
        </g>
    </g>
</svg>