<svg width="28" height="28" viewBox="0 0 28 28" fill="none" xmlns="http://www.w3.org/2000/svg">
<path d="M21.9355 2.33301V19.133" stroke="white" stroke-miterlimit="10"/>
<path d="M10.2676 2.7998H12.6014" stroke="white" stroke-miterlimit="10"/>
<path d="M21.9346 23.3331V26.1331H4.66797V2.7998H8.86844" stroke="white" stroke-miterlimit="10"/>
<path d="M16.8005 19.1333H26.1339V19.6C26.1339 20.8884 25.089 21.9333 23.8005 21.9333H8.86719" stroke="white" stroke-miterlimit="10"/>
<path d="M6.53516 7.93311V19.5998C6.53516 20.8882 7.58002 21.9331 8.86849 21.9331C10.157 21.9331 11.2018 20.8882 11.2018 19.5998V19.1331H17.2704" stroke="white" stroke-miterlimit="10"/>
<path d="M6.53516 2.7998V6.9998" stroke="white" stroke-miterlimit="10"/>
<path d="M8.86719 1.3999V4.1999" stroke="white" stroke-miterlimit="10"/>
<path d="M12.6016 1.3999V4.1999" stroke="white" stroke-miterlimit="10"/>
<path d="M14 2.7998H16.3352" stroke="white" stroke-miterlimit="10"/>
<path d="M16.3359 1.3999V4.1999" stroke="white" stroke-miterlimit="10"/>
<path d="M17.7344 2.7998H20.0677" stroke="white" stroke-miterlimit="10"/>
<path d="M20.0684 1.3999V4.1999" stroke="white" stroke-miterlimit="10"/>
<path d="M16.6743 8.19853C15.9743 7.73606 15.1357 7.4668 14.2341 7.4668C11.7855 7.4668 9.80078 9.45153 9.80078 11.9001C9.80078 14.3487 11.7855 16.3335 14.2341 16.3335C16.6827 16.3335 18.6674 14.3487 18.6674 11.9001C18.6674 11.5268 18.6212 11.1642 18.5344 10.8179" stroke="white" stroke-miterlimit="10"/>
<path d="M24.7341 7.93311H23.8008V8.86644H24.7341V7.93311Z" fill="white"/>
<path d="M24.7341 9.7998H23.8008V10.7331H24.7341V9.7998Z" fill="white"/>
<path d="M24.7341 11.6665H23.8008V12.5998H24.7341V11.6665Z" fill="white"/>
<path d="M12.3164 11.8493L13.7673 13.3002L18.4923 8.5752" stroke="white" stroke-miterlimit="10"/>
</svg>
