<svg width="20" height="20" viewBox="0 0 20 20" fill="none" xmlns="http://www.w3.org/2000/svg">
<g clip-path="url(#clip0_58_477)">
<path d="M19.4243 14.993L16.5336 12.1011C16.1454 11.7148 15.6256 11.502 15.0701 11.502C14.492 11.502 13.9462 11.7297 13.5335 12.1426L12.4083 13.2676C11.5339 12.7816 10.3718 12.1131 9.16521 10.9066C7.96007 9.70103 7.29155 8.5423 6.80307 7.66322L7.92937 6.53775C8.76675 5.69863 8.78388 4.35242 7.96768 3.53696L5.07759 0.646794C4.69047 0.258592 4.17063 0.0447998 3.61373 0.0447998C3.04855 0.0447998 2.51391 0.262398 2.10361 0.65846C1.8554 0.858352 0.609797 1.95793 0.14556 4.22558C-0.504422 7.39962 0.98898 10.4535 5.30024 14.7665C10.1163 19.5811 14.2277 19.9553 15.3731 19.9553C15.6116 19.9553 15.7555 19.9405 15.7939 19.9361C18.0399 19.6728 18.8441 18.6753 19.4313 17.947C20.1922 17.0031 20.1895 15.761 19.4243 14.993ZM18.4651 17.168C17.9132 17.8526 17.3919 18.4991 15.6495 18.7034C15.6486 18.7035 15.5533 18.7141 15.3731 18.7141C14.3484 18.7141 10.6565 18.3661 6.17783 13.8889C2.20207 9.91151 0.806628 7.18392 1.36138 4.47445C1.76629 2.49654 2.8413 1.65585 2.88308 1.62392L2.92014 1.59653L2.95266 1.56393C3.13212 1.38464 3.36684 1.28585 3.61365 1.28585C3.83836 1.28585 4.04619 1.37008 4.19942 1.52381L7.09017 4.41463C7.42277 4.74691 7.40507 5.30604 7.0512 5.66065L5.77747 6.93331L5.75653 6.95524C5.42459 7.32085 5.46364 7.81496 5.64649 8.13672C6.17411 9.08886 6.89681 10.3929 8.28746 11.7839C9.67347 13.1699 10.9756 13.8921 11.9251 14.4187C12.0201 14.4721 12.2164 14.5616 12.462 14.5616C12.7521 14.5616 13.0184 14.4388 13.2156 14.215L14.411 13.0199C14.5894 12.8414 14.8234 12.743 15.0699 12.743C15.2951 12.743 15.504 12.8275 15.6569 12.9796L18.5457 15.8696C18.9126 16.2378 18.7611 16.8008 18.4651 17.168Z" fill="#383838"/>
<path d="M12.117 3.08555C13.1832 3.20825 14.4387 3.8541 15.3154 4.73086C16.2002 5.61573 16.8476 6.88392 16.9646 7.96174C16.9991 8.27969 17.2679 8.51533 17.5807 8.51533C17.603 8.51533 17.6257 8.51409 17.6484 8.51169C17.9891 8.47471 18.2353 8.16858 18.1983 7.82787C18.0505 6.46544 17.282 4.9425 16.193 3.85335C15.1141 2.77438 13.6067 2.00782 12.2589 1.85269C11.9186 1.81322 11.6107 2.05779 11.5715 2.39817C11.5323 2.73855 11.7765 3.04633 12.117 3.08555Z" fill="#383838"/>
<path d="M11.537 5.68491C12.1137 5.75135 12.9117 6.1791 13.4346 6.70191C13.9618 7.22928 14.3904 8.03497 14.4535 8.61785C14.488 8.93589 14.7569 9.17153 15.0697 9.17153C15.092 9.17153 15.1146 9.17029 15.1373 9.16789C15.478 9.1309 15.7243 8.82478 15.6873 8.48407C15.5794 7.48891 14.9188 6.43111 14.312 5.82432C13.7106 5.22291 12.6632 4.5654 11.6789 4.45196C11.3381 4.41233 11.0306 4.65699 10.9914 4.99737C10.9523 5.33783 11.1965 5.64569 11.537 5.68491Z" fill="#383838"/>
</g>
<defs>
<clipPath id="clip0_58_477">
<rect width="20" height="20" fill="white"/>
</clipPath>
</defs>
</svg>
