<svg width="16" height="16" viewBox="0 0 16 16" fill="none" xmlns="http://www.w3.org/2000/svg">
<path id="Vector 121" d="M3.6921 7.89737L6.05132 8.68377C6.51685 8.83895 6.74961 8.91654 6.91654 9.08346C7.08346 9.25039 7.16105 9.48315 7.31623 9.94868L8.10263 12.3079C8.88704 14.6611 9.27924 15.8377 10 15.8377C10.7208 15.8377 11.113 14.6611 11.8974 12.3079L11.8974 12.3079L14.7351 3.79473C15.287 2.13894 15.563 1.31105 15.126 0.874032C14.689 0.437016 13.8611 0.712981 12.2053 1.26491L3.6921 4.10263C1.33889 4.88704 0.162278 5.27924 0.162278 6C0.162278 6.72076 1.33888 7.11296 3.69209 7.89736L3.6921 7.89737Z" fill="white"/>
</svg>
