<svg width="791" height="428" viewBox="0 0 791 428" fill="none" xmlns="http://www.w3.org/2000/svg">
<g clip-path="url(#clip0_506_973)">
<path d="M331.16 24.6501C303.864 8.48914 272.721 -0.0254644 241 5.72054e-05H65.76C57.1247 -0.00125614 48.5738 1.69845 40.5955 5.00211C32.6172 8.30577 25.3678 13.1487 19.2613 19.2542C13.1548 25.3598 8.31075 32.6085 5.00588 40.5863C1.70101 48.5641 -9.98743e-08 57.1148 0 65.7501L0 273V372C0 386.823 5.88839 401.039 16.3698 411.52C26.8512 422.002 41.0671 427.89 55.89 427.89H114.38C129.203 427.89 143.419 422.002 153.9 411.52C164.382 401.039 170.27 386.823 170.27 372V349.56C170.272 342.419 173.084 335.565 178.1 330.48C183.115 325.396 189.929 322.49 197.07 322.39H262.25C288.022 322.387 312.924 313.062 332.36 296.137C351.796 279.211 364.454 255.827 368 230.3C368.26 228.86 368.47 227.5 368.65 226.22H368.5C368.78 223.48 368.91 220.7 368.97 217.89C368.97 217.72 368.97 217.55 368.97 217.35C368.97 216.81 368.97 216.23 368.97 215.67C368.97 214.67 368.97 213.67 368.91 212.67C368.91 212.08 368.82 211.5 368.78 210.92C368.78 210.55 368.78 210.21 368.72 209.82C368.63 208.98 368.52 208.16 368.41 207.32C368.41 207.27 368.41 207.25 368.41 207.21C366.379 191.882 358.754 177.846 347 167.8L346.41 167.28C346.13 167.07 345.88 166.85 345.62 166.63C345.01 166.14 344.41 165.69 343.78 165.21C339.88 162.26 335.643 159.783 331.16 157.83C326.573 155.814 321.747 154.393 316.8 153.6L315.98 153.49C315.51 153.4 314.98 153.36 314.5 153.28L313.07 153.08C310.768 152.836 308.455 152.712 306.14 152.71C304.91 152.71 303.66 152.71 302.45 152.82C302.24 152.82 302.04 152.87 301.83 152.87C300.9 152.93 299.99 153.02 299.06 153.1C298.782 153.153 298.502 153.189 298.22 153.21L295.76 153.58L294.76 153.75C293.98 153.88 293.21 154.05 292.43 154.22C292.11 154.29 291.78 154.35 291.43 154.44C290.67 154.61 289.92 154.83 289.18 155.02L288.23 155.28C287.46 155.52 286.72 155.76 285.97 156.02C285.69 156.12 285.38 156.21 285.1 156.32C284.33 156.58 283.55 156.9 282.79 157.18L282.04 157.48C281.18 157.83 280.33 158.22 279.49 158.61C279.348 158.661 279.211 158.724 279.08 158.8C277.098 159.738 275.168 160.783 273.3 161.93C273.21 161.99 273.1 162.04 273.02 162.1C272.2 162.62 271.4 163.1 270.6 163.68C270.36 163.83 270.15 164 269.93 164.15C269.263 164.61 268.623 165.08 268.01 165.56C267.75 165.77 267.47 165.97 267.23 166.16C266.65 166.63 266.07 167.09 265.51 167.56C265.248 167.804 264.975 168.034 264.69 168.25C264.15 168.73 263.69 169.25 263.13 169.7C262.85 169.96 262.57 170.2 262.31 170.48C261.82 170.95 261.31 171.48 260.82 171.97C260.56 172.22 260.33 172.51 260.05 172.76C259.57 173.28 259.1 173.84 258.62 174.36C258.39 174.64 258.15 174.88 257.93 175.16C257.44 175.74 256.98 176.33 256.49 176.95C256.31 177.19 256.12 177.43 255.95 177.64C255.39 178.35 254.89 179.09 254.37 179.82C254.281 179.965 254.181 180.102 254.07 180.23C252.84 182.041 251.701 183.914 250.66 185.84C250.66 185.93 250.57 185.99 250.53 186.1C250.08 186.96 249.62 187.85 249.19 188.73C249.1 188.95 249.02 189.17 248.91 189.38C248.54 190.16 248.22 190.94 247.91 191.71C247.8 191.97 247.69 192.27 247.58 192.53C247.3 193.27 247 194.02 246.74 194.78C246.65 195.08 246.52 195.36 246.44 195.66C246.18 196.5 245.92 197.35 245.65 198.18L245.46 198.88C245.26 199.65 245.05 200.45 244.86 201.23C244.8 201.49 244.73 201.79 244.69 202.05C244.47 202.89 244.32 203.73 244.17 204.62C244.17 204.86 244.09 205.07 244.04 205.33C243.87 206.28 243.74 207.25 243.63 208.2C243.62 208.35 243.62 208.5 243.63 208.65C243.36 210.974 243.224 213.311 243.22 215.65C243.22 217.76 243.37 219.81 243.57 221.86C243.64 222.58 243.71 223.31 243.8 224.03C243.83 224.31 243.8 224.593 243.713 224.86C243.625 225.128 243.483 225.374 243.294 225.582C243.105 225.791 242.875 225.957 242.617 226.07C242.36 226.184 242.081 226.242 241.8 226.24H163.8C163.8 226.01 163.8 225.77 163.75 225.49C158.42 148.89 215.81 80.8401 292.23 73.5501C325.212 70.2927 358.296 78.6539 385.77 97.1901C386.124 97.4373 386.547 97.5637 386.979 97.5503C387.41 97.5368 387.825 97.3843 388.163 97.1155C388.5 96.8467 388.742 96.476 388.851 96.0587C388.96 95.6414 388.932 95.1999 388.77 94.8001C377.197 66.0725 357.089 41.5873 331.16 24.6501Z" fill="#914EFF"/>
<path d="M781.94 100.92C771.55 71.4172 752.26 45.8655 726.733 27.7895C701.206 9.71342 670.699 0.00382228 639.42 0L454.74 0C437.835 0.00530249 421.624 6.72382 409.671 18.6784C397.719 30.633 391.003 46.845 391 63.75V322.39V374C391 388.293 396.678 402 406.784 412.106C416.89 422.212 430.597 427.89 444.89 427.89H507.38C521.667 427.882 535.367 422.201 545.467 412.095C555.566 401.99 561.24 388.287 561.24 374V349.56C561.242 342.425 564.049 335.577 569.055 330.494C574.062 325.411 580.866 322.5 588 322.39H653.19C672.748 322.414 691.934 317.036 708.63 306.85C733.211 294.595 753.888 275.729 768.338 252.37C782.788 229.012 790.439 202.087 790.43 174.62V151.05C790.465 133.979 787.594 117.027 781.94 100.92Z" fill="#914EFF"/>
</g>
<defs>
<clipPath id="clip0_506_973">
<rect width="790.47" height="427.92" fill="white"/>
</clipPath>
</defs>
</svg>
