<svg width="13" height="13" viewBox="0 0 13 13" fill="none" xmlns="http://www.w3.org/2000/svg">
<path d="M11.0601 0.463682C11.4674 0.0563761 12.1277 0.0563775 12.535 0.463683C12.9423 0.870988 12.9423 1.53136 12.535 1.93867L2.21015 12.2636C1.80284 12.6709 1.14247 12.6709 0.735167 12.2636C0.327861 11.8562 0.327861 11.1959 0.735166 10.7886L11.0601 0.463682Z" fill="#A6A6A6"/>
<path d="M12.5366 10.7895C12.9439 11.1968 12.9439 11.8572 12.5366 12.2645C12.1293 12.6718 11.4689 12.6718 11.0616 12.2645L0.736744 1.93957C0.329439 1.53227 0.32944 0.871898 0.736746 0.464592C1.14405 0.0572867 1.80442 0.0572865 2.21173 0.464592L12.5366 10.7895Z" fill="#A6A6A6"/>
</svg>
