<svg width="16" height="16" viewBox="0 0 16 16" fill="none" xmlns="http://www.w3.org/2000/svg">
<g id="Filter_alt_light">
<path id="Union" d="M6.65551 13.1143L6.81362 13.5886H6.81362L6.65551 13.1143ZM9.65551 12.1143L9.81362 12.5886L9.65551 12.1143ZM13.0378 4.95989L12.6843 4.60633L13.0378 4.95989ZM10.2903 7.70744L9.93673 7.35388L10.2903 7.70744ZM2.95696 4.95989L2.6034 5.31344L2.95696 4.95989ZM3.66406 3.16699H12.3307V2.16699H3.66406V3.16699ZM3.16406 4.25278V3.66699H2.16406V4.25278H3.16406ZM6.05805 7.35387L3.31051 4.60633L2.6034 5.31344L5.35094 8.06098L6.05805 7.35387ZM5.49739 8.41454V12.6399H6.49739V8.41454H5.49739ZM5.49739 12.6399C5.49739 13.3225 6.16609 13.8045 6.81362 13.5886L6.49739 12.6399H5.49739ZM6.81362 13.5886L9.81362 12.5886L9.49739 11.6399L6.49739 12.6399L6.81362 13.5886ZM9.81362 12.5886C10.222 12.4525 10.4974 12.0704 10.4974 11.6399H9.49739V11.6399L9.81362 12.5886ZM10.4974 11.6399V8.41454H9.49739V11.6399H10.4974ZM12.6843 4.60633L9.93673 7.35388L10.6438 8.06099L13.3914 5.31344L12.6843 4.60633ZM12.8307 3.66699V4.25278H13.8307V3.66699H12.8307ZM13.3914 5.31344C13.6727 5.03213 13.8307 4.6506 13.8307 4.25278H12.8307C12.8307 4.38539 12.7781 4.51256 12.6843 4.60633L13.3914 5.31344ZM10.4974 8.41454C10.4974 8.28194 10.5501 8.15476 10.6438 8.06099L9.93673 7.35388C9.65543 7.63519 9.49739 8.01672 9.49739 8.41454H10.4974ZM5.35094 8.06098C5.44471 8.15475 5.49739 8.28193 5.49739 8.41454H6.49739C6.49739 8.01671 6.33936 7.63518 6.05805 7.35387L5.35094 8.06098ZM2.16406 4.25278C2.16406 4.6506 2.3221 5.03213 2.6034 5.31344L3.31051 4.60633C3.21674 4.51256 3.16406 4.38539 3.16406 4.25278H2.16406ZM12.3307 3.16699C12.6069 3.16699 12.8307 3.39085 12.8307 3.66699H13.8307C13.8307 2.83856 13.1592 2.16699 12.3307 2.16699V3.16699ZM3.66406 2.16699C2.83564 2.16699 2.16406 2.83857 2.16406 3.66699H3.16406C3.16406 3.39085 3.38792 3.16699 3.66406 3.16699V2.16699Z" fill="white"/>
</g>
</svg>
