<svg width="10" height="20" viewBox="0 0 10 20" fill="none" xmlns="http://www.w3.org/2000/svg">
    <path fill-rule="evenodd" clip-rule="evenodd"
          d="M8.41712 13.6742L2.29298 19.6182C1.76956 20.1262 0.919629 20.1274 0.394598 19.621C-0.130367 19.1146 -0.131709 18.2924 0.391644 17.7844L6.51994 11.8365C7.03498 11.3408 7.31605 10.686 7.31544 9.9887C7.31484 9.29143 7.03263 8.63708 6.52075 8.14617L0.393189 2.21698C-0.131038 1.70978 -0.13097 0.887512 0.393256 0.380371C0.917415 -0.126834 1.76734 -0.126769 2.2915 0.380436L8.41484 6.30553C9.4343 7.28319 9.99872 8.59189 10 9.98649C10.0013 11.3811 9.43913 12.6907 8.41712 13.6742Z"
          fill="#8A8A8A"/>
</svg>
