<svg width="14" height="28" viewBox="0 0 14 28" fill="none" xmlns="http://www.w3.org/2000/svg">
    <path fill-rule="evenodd" clip-rule="evenodd"
          d="M2.21603 8.85612L10.7898 0.534533C11.5226 -0.176645 12.7125 -0.178373 13.4476 0.530533C14.1825 1.23953 14.1844 2.39071 13.4517 3.10188L4.87208 11.4289C4.15104 12.1228 3.75753 13.0396 3.75838 14.0158C3.75922 14.992 4.15432 15.9081 4.87095 16.5954L13.4495 24.8962C14.1835 25.6063 14.1834 26.7575 13.4494 27.4675C12.7156 28.1776 11.5257 28.1775 10.7919 27.4674L2.21923 19.1723C0.791986 17.8035 0.00178814 15.9714 2.86102e-06 14.0189C-0.00178242 12.0665 0.785222 10.233 2.21603 8.85612Z"
          fill="white"/>
</svg>
