<svg width="14" height="28" viewBox="0 0 14 28" fill="none" xmlns="http://www.w3.org/2000/svg">
    <path fill-rule="evenodd" clip-rule="evenodd"
          d="M11.784 19.1439L3.21017 27.4655C2.47738 28.1766 1.28748 28.1784 0.552437 27.4695C-0.182513 26.7605 -0.184393 25.6093 0.548302 24.8981L9.12792 16.5711C9.84896 15.8772 10.2425 14.9604 10.2416 13.9842C10.2408 13.008 9.84568 12.0919 9.12905 11.4046L0.550464 3.10378C-0.183453 2.39369 -0.183358 1.24252 0.550559 0.53252C1.28438 -0.177567 2.47428 -0.177476 3.20811 0.532611L11.7808 8.82775C13.208 10.1965 13.9982 12.0286 14 13.9811C14.0018 15.9335 13.2148 17.767 11.784 19.1439Z"
          fill="white"/>
</svg>
