<svg width="28" height="28" viewBox="0 0 28 28" fill="none" xmlns="http://www.w3.org/2000/svg">
<g id="Approved report">
<g id="Group">
<path id="Vector" d="M21.9297 2.33398V19.134" stroke="white" stroke-miterlimit="10"/>
<path id="Vector_2" d="M10.2656 2.80078H12.5994" stroke="white" stroke-miterlimit="10"/>
<path id="Vector_3" d="M21.9307 23.3341V26.1341H4.66406V2.80078H8.86453" stroke="white" stroke-miterlimit="10"/>
<path id="Vector_4" d="M16.8005 19.1338H26.1339V19.6005C26.1339 20.8889 25.089 21.9338 23.8005 21.9338H8.86719" stroke="white" stroke-miterlimit="10"/>
<path id="Vector_5" d="M6.53125 7.93359V19.6003C6.53125 20.8887 7.57612 21.9336 8.86458 21.9336C10.153 21.9336 11.1979 20.8887 11.1979 19.6003V19.1336H17.2665" stroke="white" stroke-miterlimit="10"/>
<path id="Vector_6" d="M6.53125 2.80078V7.00078" stroke="white" stroke-miterlimit="10"/>
<path id="Vector_7" d="M8.86719 1.40039V4.20039" stroke="white" stroke-miterlimit="10"/>
<path id="Vector_8" d="M12.5938 1.40039V4.20039" stroke="white" stroke-miterlimit="10"/>
<path id="Vector_9" d="M14 2.80078H16.3352" stroke="white" stroke-miterlimit="10"/>
<path id="Vector_10" d="M16.3359 1.40039V4.20039" stroke="white" stroke-miterlimit="10"/>
<path id="Vector_11" d="M17.7344 2.80078H20.0677" stroke="white" stroke-miterlimit="10"/>
<path id="Vector_12" d="M20.0625 1.40039V4.20039" stroke="white" stroke-miterlimit="10"/>
<path id="Vector_13" d="M16.6704 8.19853C15.9704 7.73606 15.1318 7.4668 14.2302 7.4668C11.7816 7.4668 9.79688 9.45153 9.79688 11.9001C9.79688 14.3487 11.7816 16.3335 14.2302 16.3335C16.6788 16.3335 18.6635 14.3487 18.6635 11.9001C18.6635 11.5268 18.6173 11.1642 18.5305 10.8179" stroke="white" stroke-miterlimit="10"/>
</g>
<path id="Vector_14" d="M24.7302 7.93359H23.7969V8.86693H24.7302V7.93359Z" fill="white"/>
<path id="Vector_15" d="M24.7302 9.7998H23.7969V10.7331H24.7302V9.7998Z" fill="white"/>
<path id="Vector_16" d="M24.7302 11.667H23.7969V12.6003H24.7302V11.667Z" fill="white"/>
<path id="Vector_17" d="M12.3125 11.8493L13.7634 13.3002L18.4884 8.5752" stroke="white" stroke-miterlimit="10"/>
</g>
</svg>
