<svg width="10" height="20" viewBox="0 0 10 20" fill="none" xmlns="http://www.w3.org/2000/svg">
    <path fill-rule="evenodd" clip-rule="evenodd"
          d="M1.58288 6.3258L7.70702 0.381809C8.23044 -0.126175 9.08037 -0.127409 9.6054 0.378952C10.1304 0.885378 10.1317 1.70765 9.60836 2.21563L3.48006 8.16352C2.96502 8.65917 2.68395 9.31403 2.68456 10.0113C2.68516 10.7086 2.96737 11.3629 3.47925 11.8538L9.60681 17.783C10.131 18.2902 10.131 19.1125 9.60674 19.6196C9.08258 20.1268 8.23266 20.1268 7.7085 19.6196L1.58516 13.6945C0.565704 12.7168 0.00127697 11.4081 1.90735e-06 10.0135C-0.00127316 8.61891 0.560873 7.3093 1.58288 6.3258Z"
          fill="#8A8A8A"/>
</svg>
