<svg xmlns="http://www.w3.org/2000/svg" xmlns:xlink="http://www.w3.org/1999/xlink" viewBox="0 0 320.84 149.75"><defs><style>.cls-1{fill:url(#Безымянный_градиент_2);}.cls-2{fill:url(#Безымянный_градиент_6);}.cls-3{fill:url(#Безымянный_градиент_6-2);}.cls-4{fill:url(#Безымянный_градиент_6-3);}.cls-5{fill:url(#Безымянный_градиент_6-4);}.cls-6{fill:#fff;}</style><linearGradient id="Безымянный_градиент_2" x1="0.27" y1="461.95" x2="319.65" y2="461.95" gradientTransform="matrix(1, 0, 0, -1, 0, 536.83)" gradientUnits="userSpaceOnUse"><stop offset="0" stop-color="#bd63b1"/><stop offset="0.33" stop-color="#6546ac"/><stop offset="0.66" stop-color="#2b4894"/><stop offset="1" stop-color="#23669b"/></linearGradient><linearGradient id="Безымянный_градиент_6" x1="30.83" y1="506.41" x2="50.43" y2="534.38" gradientTransform="matrix(1, 0, 0, -1, 0, 536.83)" gradientUnits="userSpaceOnUse"><stop offset="0" stop-color="#fff" stop-opacity="0.2"/><stop offset="1" stop-color="#fff" stop-opacity="0"/></linearGradient><linearGradient id="Безымянный_градиент_6-2" x1="64.67" y1="488.45" x2="150.05" y2="488.45" xlink:href="#Безымянный_градиент_6"/><linearGradient id="Безымянный_градиент_6-3" x1="292.14" y1="493.02" x2="249.42" y2="542.79" xlink:href="#Безымянный_градиент_6"/><linearGradient id="Безымянный_градиент_6-4" x1="171.08" y1="461.95" x2="249.48" y2="461.95" xlink:href="#Безымянный_градиент_6"/></defs><g id="Слой_2" data-name="Слой 2"><g id="Слой_1-2" data-name="Слой 1"><rect class="cls-1" width="149.75" height="149.75"/><rect class="cls-1" x="171.08" width="149.75" height="149.75"/><polygon class="cls-2" points="104.3 0 64.95 45.05 0 5.44 0 0 104.3 0"/><polygon class="cls-3" points="149.75 0 149.75 96.76 64.95 45.05 104.3 0 149.75 0"/><polygon class="cls-4" points="320.84 0 249.48 71.35 198.43 0 320.84 0"/><polygon class="cls-5" points="249.48 71.35 171.08 149.75 171.08 0 198.43 0 249.48 71.35"/><path class="cls-6" d="M56.45,124.45H38V25.67H79.91q17.93,0,26.58,9.82a33.87,33.87,0,0,1,8.66,23.19q0,15.24-9.37,24.69T82,92.82H56.45Zm0-48.82H78.27q8.53,0,13-4.57t4.5-12.14a17.47,17.47,0,0,0-4.16-11.73q-4.17-4.89-15-4.89H56.45Z"/><path class="cls-6" d="M286,124.45H266.5L250.61,91.19H224.67v33.26H206.23V25.67h44.38q18.51,0,27.21,9.09t8.7,23.51q0,21.43-18.44,29.5ZM224.67,75.14h22.94q10,0,14.85-4.57T267.33,58a15.5,15.5,0,0,0-4.8-11.85q-4.8-4.53-13.42-4.52H224.67Z"/></g></g></svg>