<svg width="18" height="18" viewBox="0 0 18 18" fill="none" xmlns="http://www.w3.org/2000/svg">
    <g clip-path="url(#clip0_58_494)">
        <path d="M15.364 2.63602C13.6641 0.936176 11. 0 9 0C6.59602 0 4.33593 0.936176 2.63602 2.63602C0.936176 4.33593 0 6.59602 0 9C0 11. 0.936176 13.6641 2.63602 15.364C4.33593 17.0638 6.59602 18 9 18C11. 18 13.6641 17.0638 15.364 15.364C17.0638 13.6641 18 11. 18 9C18 6.59602 17.0638 4.33593 15.364 2.63602ZM8.47266 4.38015C7.60419 4.35111 6.75896 4.25078 5.96647 4.08604C6.08193 3.79434 6.20814 3.5157 6.34521 3.25266C6.94944 2.09324 7.69029 1.36027 8.47266 1.13171V4.38015ZM8.47266 5.43537V8.47266H5.12047C5.15981 7.27084 5.33338 6.12179 5.62721 5.09045C6.52722 5.2863 7.48807 5.22 8.47266 5.43537ZM8.47266 9.52734V12.5646C7.48807 12.5958 6.52722 12.7137 5.62721 12.9096C5.33338 11.8782 5.15981 10.7292 5.12047 9.52734H8.47266ZM8.47266 13.6198V16.8683C7.69032 16.6397 6.94948 15.9068 6.34521 14.7473C6.20814 14.4843 6.08193 14.2057 5.96647 13.914C6.75896 13.7492 7.60419 13.6489 8.47266 13.6198ZM9.52734 13.6198C10.3958 13.6489 11.241 13.7492 12.0335 13.914C11.9181 14.2057 11.7919 14.4843 11.6548 14.7473C11.0506 15.9068 10.3097 16.6397 9.52734 16.8683V13.6198ZM9.52734 12.5646V9.52734H12.8795C12.8402 10.7292 12.6666 11.8782 12.3728 12.9095C11.4728 12.7137 10.5119 12.5958 9.52734 12.5646ZM9.52734 8.47266V5.43537C10.5119 5.22 11.4728 5.2863 12.3728 5.09045C12.6666 6.12176 12.8402 7.2708 12.8795 8.47266H9.52734ZM9.52734 4.38015V1.13171C10.3097 1.36027 11.0505 2.09324 11.6548 3.25266C11.7919 3.5157 11.9181 3.79434 12.0335 4.08604C11.241 4.25078 10.3958 4.35111 9.52734 4.38015ZM12.5901 2.76521C12.3549 2.31398 12.0975 1.91429 11.8219 1.56857C12.8127 1.94432 13.7249 2.52 14.5087 3.27498C14.0663 3.48736 13.5811 3.67189 13.0637 3.82662C12.9217 3.45364 12.7638 3.09857 12.5901 2.76521ZM5.40995 2.76521C5.23621 3.09857 5.07829 3.45368 4.93632 3.82662C4.41886 3.67189 3.9337 3.48732 3.4913 3.27498C4.27514 2.52 5.18734 1.94432 6.17811 1.56857C5.90249 1.91426 5.64511 2.31398 5.40995 2.76521ZM4.60649 4.82688C4.29047 5.94577 4.1052 7.18418 4.06536 8.47266H1.07234C1.17721 6.86197 1.76126 5.34424 2.75607 4.08547C3.31327 4.37632 3.93613 4.62491 4.60649 4.82688ZM4.06533 9.52734C4.10516 10.8159 4.29043 12.0543 4.60645 13.1732C3.93609 13.3751 3.31323 13.6237 2.75607 13.9146C1.76126 12.6558 1.17717 11.1381 1.07234 9.52734H4.06533ZM4.93632 14.1734C5.07829 14.5464 5.23621 14.9014 5.40995 15.2348C5.64511 15.686 5.90249 16.0857 6.17811 16.4314C5.18734 16.0557 4.27518 15.48 3.49133 14.7251C3.9337 14.5127 4.41886 14.3281 4.93632 14.1734ZM12.5901 15.2348C12.7638 14.9014 12.9217 14.5463 13.0637 14.1733C13.5811 14.3281 14.0663 14.5126 14.5087 14.725C13.7249 15.48 12.8127 16.0556 11.8219 16.4314C12.0975 16.0857 12.3549 15.686 12.5901 15.2348ZM13.3935 13.1731C13.7095 12.0542 13.8948 10.8159 13.9346 9.52734H16.9276C16.8228 11.138 16.2387 12.6557 15.2439 13.9145C14.6868 13.6237 14.0639 13.3751 13.3935 13.1731ZM13.9347 8.47266C13.8948 7.18414 13.7096 5.94573 13.3935 4.82688C14.0639 4.62491 14.6868 4.37632 15.2439 4.08547C16.2387 5.34428 16.8228 6.86197 16.9277 8.47269H13.9347V8.47266Z"
              fill="#383838"/>
    </g>
    <defs>
        <clipPath id="clip0_58_494">
            <rect width="18" height="18" fill="white"/>
        </clipPath>
    </defs>
</svg>
