<svg width="20" height="20" viewBox="0 0 20 20" fill="none" xmlns="http://www.w3.org/2000/svg">
    <g clip-path="url(#clip0_58_468)">
        <path d="M10.0001 8.8889C7.54551 8.8889 5.55566 6.89905 5.55566 4.44447C5.55566 1.98989 7.54551 0 10.0001 0C12.4547 0 14.4445 1.98985 14.4445 4.44443C14.4445 6.89902 12.4547 8.8889 10.0001 8.8889ZM10.0001 2.22223C8.77278 2.22223 7.77786 3.21716 7.77786 4.44447C7.77786 5.67178 8.77278 6.66671 10.0001 6.66671C11.2274 6.66671 12.2223 5.67178 12.2223 4.44447C12.2223 3.21716 11.2274 2.22223 10.0001 2.22223Z"
              fill="#383838"/>
        <path d="M17.778 20H2.22245C1.60881 20 1.11133 19.5026 1.11133 18.8889C1.11133 13.9797 5.09102 10 10.0002 10C14.9094 10 18.8891 13.9797 18.8891 18.8889C18.8891 19.5026 18.3916 20 17.778 20ZM3.42245 17.7778H16.578C15.9788 14.145 12.548 11.6858 8.91519 12.285C6.09652 12.75 3.88738 14.9592 3.42245 17.7778Z"
              fill="#383838"/>
    </g>
    <defs>
        <clipPath id="clip0_58_468">
            <rect width="20" height="20" fill="white"/>
        </clipPath>
    </defs>
</svg>
