<svg width="91" height="91" viewBox="0 0 91 91" fill="none" xmlns="http://www.w3.org/2000/svg">
    <rect width="91" height="91" rx="16" fill="#BD65D0"/>
    <path d="M36.7972 29.3647C36.5174 30.0784 36.2375 30.8368 35.9576 31.6397C35.7711 32.3534 35.5845 33.1118 35.3979 33.9147C35.2113 34.7176 35.1181 35.476 35.1181 36.1897C35.1181 37.3495 35.258 38.5539 35.5378 39.8029C35.8177 40.9627 36.564 41.8995 37.7767 42.6132C39.3626 43.5946 40.7153 44.8882 41.8347 46.4941C42.9542 48.1 43.5139 49.7951 43.5139 51.5794C43.5139 54.4343 42.3944 56.8431 40.1556 58.8059C37.9167 60.7686 35.3513 61.75 32.4594 61.75C29.4742 61.75 26.8155 60.7686 24.4833 58.8059C22.2444 56.7539 21.125 54.2113 21.125 51.1779C21.125 49.4828 21.4515 47.5201 22.1045 45.2897C22.7575 42.9701 23.5971 40.6951 24.6233 38.4647C25.6494 36.2343 26.8155 34.1377 28.1215 32.175C29.4275 30.2123 30.7336 28.6956 32.0396 27.625L36.7972 29.3647ZM64.7833 29.3647C64.5035 30.0784 64.2236 30.8368 63.9437 31.6397C63.7572 32.3534 63.5706 33.1118 63.384 33.9147C63.1975 34.7176 63.1042 35.476 63.1042 36.1897C63.1042 37.3495 63.2441 38.5093 63.524 39.6691C63.8038 40.7397 64.5501 41.7211 65.7628 42.6132C67.3487 43.773 68.7014 45.1113 69.8208 46.6279C70.9403 48.1446 71.5 49.7951 71.5 51.5794C71.5 54.4343 70.3806 56.8431 68.1417 58.8059C65.9028 60.7686 63.3374 61.75 60.4455 61.75C57.4603 61.75 54.8016 60.7686 52.4694 58.8059C50.2306 56.7539 49.1111 54.2113 49.1111 51.1779C49.1111 49.4828 49.4376 47.5201 50.0906 45.2897C50.7436 42.9701 51.5832 40.6951 52.6094 38.4647C53.6355 36.2343 54.8016 34.1377 56.1076 32.175C57.4137 30.2123 58.7197 28.6956 60.0257 27.625L64.7833 29.3647Z"
          fill="white"/>
</svg>
