<svg width="46" height="46" viewBox="0 0 46 46" fill="none" xmlns="http://www.w3.org/2000/svg">
<path d="M44 23C44 18.6122 42.6256 14.3346 40.0698 10.768C37.514 7.20135 33.9052 4.52488 29.7502 3.11447C25.5953 1.70405 21.1029 1.63054 16.904 2.90425C12.7051 4.17797 9.01071 6.73492 6.33958 10.216C3.66845 13.6971 2.15481 17.9274 2.01124 22.3129C1.86768 26.6984 3.1014 31.0186 5.53914 34.667C7.97688 38.3153 11.4962 41.1084 15.6027 42.654C19.7093 44.1996 24.1969 44.4201 28.4352 43.2844" stroke="#914EFF" stroke-width="3" stroke-linecap="round"/>
<circle cx="23.0052" cy="22.9998" r="9.33333" stroke="#914EFF" stroke-width="3"/>
<path d="M32.3281 16.0005V26.5005C32.3281 29.7222 34.9398 32.3338 38.1615 32.3338V32.3338C41.3831 32.3338 43.9948 29.7222 43.9948 26.5005V23.0005" stroke="#914EFF" stroke-width="3" stroke-linecap="round"/>
</svg>
