<?xml version="1.0" standalone="no"?>
<!DOCTYPE svg PUBLIC "-//W3C//DTD SVG 20010904//EN"
        "http://www.w3.org/TR/2001/REC-SVG-20010904/DTD/svg10.dtd">
<svg version="1.0" xmlns="http://www.w3.org/2000/svg"
     width="1180.000000pt" height="186.000000pt" viewBox="0 0 1180.000000 186.000000"
     preserveAspectRatio="xMidYMid meet">

    <g transform="translate(0.000000,186.000000) scale(0.100000,-0.100000)"
       fill="#000000" stroke="none">
        <path d="M530 1700 l0 -150 248 0 248 0 95 107 94 107 3 -141 3 -142 53 -55
c97 -99 144 -235 125 -361 -21 -136 -120 -268 -246 -328 l-68 -32 -192 -3
-193 -4 -2 -191 -3 -192 -107 -3 c-60 -1 -109 -1 -110 0 -2 2 -5 270 -8 597
l-5 593 -90 53 c-49 28 -152 88 -227 133 l-138 81 0 -880 0 -879 920 0 920 0
0 920 0 920 -660 0 -660 0 0 -150z"/>
        <path d="M2130 930 l0 -920 915 0 915 0 0 920 0 920 -915 0 -915 0 0 -920z
m1083 596 c84 -35 135 -73 183 -139 67 -90 88 -155 89 -267 0 -87 -3 -101 -33
-164 -41 -87 -89 -147 -152 -189 l-49 -33 136 -201 c75 -110 133 -206 129
-212 -5 -7 -44 -11 -106 -11 -89 0 -101 2 -127 24 -16 13 -78 101 -138 195
l-110 171 -127 0 -128 0 0 -182 c0 -101 -4 -189 -8 -196 -6 -9 -36 -12 -113
-10 l-104 3 -3 605 c-1 333 0 611 3 618 3 9 73 12 302 12 291 0 299 -1 356
-24z"/>
        <path d="M2780 1125 l0 -205 163 0 c149 0 167 2 207 23 148 74 145 300 -5 368
-33 16 -67 19 -202 19 l-163 0 0 -205z"/>
        <path d="M700 1125 l0 -205 153 0 c140 0 156 2 204 25 39 18 60 36 83 71 16
27 30 50 30 54 0 3 -83 55 -184 115 -115 69 -181 114 -175 120 19 19 7 25 -51
25 l-60 0 0 -205z"/>
    </g>
</svg>
