<svg width="18" height="16" viewBox="0 0 18 16" fill="none" xmlns="http://www.w3.org/2000/svg">
<path d="M2.42834 8.94102L8.48056 14.6714C8.68904 14.8688 8.79328 14.9675 8.91618 14.9918C8.97153 15.0027 9.02847 15.0027 9.08382 14.9918C9.20672 14.9675 9.31096 14.8688 9.51944 14.6714L15.5717 8.94102C17.2745 7.32874 17.4813 4.67555 16.0491 2.81504L15.7798 2.46521C14.0665 0.239514 10.6275 0.612781 9.42364 3.1551C9.25359 3.51422 8.74641 3.51422 8.57636 3.1551C7.37249 0.612781 3.93347 0.239518 2.22017 2.46522L1.95088 2.81505C0.518706 4.67556 0.725494 7.32874 2.42834 8.94102Z" fill="#8846E5" stroke="#8846E5"/>
</svg>
