<svg width="8" height="12" viewBox="0 0 8 12" fill="none" xmlns="http://www.w3.org/2000/svg">
<path d="M3.504 7.792C3.504 7.376 3.57333 7.01333 3.712 6.704C3.85067 6.39467 4.02133 6.11733 4.224 5.872C4.43733 5.62667 4.66667 5.40267 4.912 5.2C5.15733 4.98667 5.38667 4.77867 5.6 4.576C5.81333 4.36267 5.984 4.13867 6.112 3.904C6.25067 3.66933 6.32 3.39733 6.32 3.088C6.32 2.576 6.11733 2.16 5.712 1.84C5.30667 1.52 4.74667 1.36 4.032 1.36C3.392 1.36 2.83733 1.46667 2.368 1.68C1.89867 1.89333 1.49867 2.208 1.168 2.624L0 1.792C0.448 1.22667 1.01867 0.789333 1.712 0.48C2.40533 0.16 3.216 0 4.144 0C4.912 0 5.57867 0.117333 6.144 0.351999C6.70933 0.576 7.14667 0.901333 7.456 1.328C7.776 1.744 7.936 2.25067 7.936 2.848C7.936 3.296 7.86667 3.68 7.728 4C7.58933 4.32 7.41333 4.60267 7.2 4.848C6.98667 5.09333 6.75733 5.32267 6.512 5.536C6.27733 5.74933 6.05333 5.96267 5.84 6.176C5.62667 6.38933 5.45067 6.624 5.312 6.88C5.17333 7.136 5.104 7.44 5.104 7.792H3.504ZM4.32 11.424C4.02133 11.424 3.77067 11.3227 3.568 11.12C3.376 10.9173 3.28 10.6773 3.28 10.4C3.28 10.1013 3.376 9.856 3.568 9.664C3.77067 9.472 4.02133 9.376 4.32 9.376C4.61867 9.376 4.864 9.472 5.056 9.664C5.248 9.856 5.344 10.1013 5.344 10.4C5.344 10.6773 5.248 10.9173 5.056 11.12C4.864 11.3227 4.61867 11.424 4.32 11.424Z" fill="#383838"/>
</svg>
