<svg width="42" height="25" viewBox="0 0 42 25" fill="none" xmlns="http://www.w3.org/2000/svg">
<rect width="42" height="25" fill="#FAFAFA"/>
<path fill-rule="evenodd" clip-rule="evenodd" d="M42 22.0107V16.576H32.8816L42 22.0107Z" fill="#012169"/>
<path fill-rule="evenodd" clip-rule="evenodd" d="M30.9474 16.5761L42 23.0978L42 25L27.6316 16.5761H30.9474Z" fill="#C8102E"/>
<path fill-rule="evenodd" clip-rule="evenodd" d="M25.1438 25H37.0254L25.1438 17.9348V25Z" fill="#012169"/>
<path fill-rule="evenodd" clip-rule="evenodd" d="M16.8555 25H5.25021L16.8555 17.9348L16.8555 25Z" fill="#012169"/>
<path fill-rule="evenodd" clip-rule="evenodd" d="M16.8555 16.5761L3.15021 25L0.000205994 25L13.9818 16.5761H16.8555Z" fill="#C8102E"/>
<path fill-rule="evenodd" clip-rule="evenodd" d="M0.000720024 22.0107V16.576H9.11914L0.000720024 22.0107Z" fill="#012169"/>
<rect y="10.0547" width="42" height="4.8913" fill="#C8102E"/>
<rect x="18.5137" width="4.97368" height="25" fill="#C8102E"/>
<path fill-rule="evenodd" clip-rule="evenodd" d="M41.9993 2.98926V8.42404H32.8809L41.9993 2.98926Z" fill="#012169"/>
<path fill-rule="evenodd" clip-rule="evenodd" d="M25.1445 8.42391L38.8498 0L41.9998 0L28.0182 8.42391H25.1445Z" fill="#C8102E"/>
<path fill-rule="evenodd" clip-rule="evenodd" d="M25.1445 0H36.7498L25.1445 7.06522L25.1445 0Z" fill="#012169"/>
<path fill-rule="evenodd" clip-rule="evenodd" d="M16.8562 0H4.97461L16.8562 7.06522V0Z" fill="#012169"/>
<path fill-rule="evenodd" clip-rule="evenodd" d="M11.0526 8.42391L0 1.90217L0 0L14.3684 8.42391H11.0526Z" fill="#C8102E"/>
<path fill-rule="evenodd" clip-rule="evenodd" d="M0 2.98926V8.42404H9.11842L0 2.98926Z" fill="#012169"/>
</svg>
