<svg width="28" height="28" viewBox="0 0 28 28" fill="none" xmlns="http://www.w3.org/2000/svg">
<g id="Book_light">
<path id="Vector 57" d="M23.3327 14V20.5C23.3327 22.3856 23.3327 23.3284 22.7469 23.9142C22.1611 24.5 21.2183 24.5 19.3327 24.5H7.58268C5.97185 24.5 4.66602 23.1942 4.66602 21.5833V21.5833C4.66602 19.9725 5.97185 18.6667 7.58268 18.6667H19.3327C21.2183 18.6667 22.1611 18.6667 22.7469 18.0809C23.3327 17.4951 23.3327 16.5523 23.3327 14.6667V7.5C23.3327 5.61438 23.3327 4.67157 22.7469 4.08579C22.1611 3.5 21.2183 3.5 19.3327 3.5H8.66601C6.7804 3.5 5.83759 3.5 5.2518 4.08579C4.66602 4.67157 4.66602 5.61438 4.66602 7.5V21.5833" stroke="#383838" stroke-width="1.5"/>
<path id="Vector 16" d="M10.7142 10.9705L13.7403 13.8357C13.8445 13.9344 13.8966 13.9837 13.9581 13.9959C13.9858 14.0014 14.0142 14.0014 14.0419 13.9959C14.1034 13.9837 14.1555 13.9344 14.2597 13.8357L17.2858 10.9705C18.1373 10.1644 18.2406 8.83778 17.5246 7.90752L17.3899 7.73261C16.5333 6.61976 14.8138 6.80639 14.2118 8.07755C14.1268 8.25711 13.8732 8.25711 13.7882 8.07755C13.1862 6.80639 11.4667 6.61976 10.6101 7.73261L10.4754 7.90752C9.75935 8.83778 9.86275 10.1644 10.7142 10.9705Z" stroke="#383838" stroke-width="1.5"/>
</g>
</svg>
